{"title":"Primus-Hallucino-Genetics Live 2004 DVDRip XviD AC3 5.1 titler","uid":8639522,"size":2376396951,"categoryP":"video","categoryS":"movies","magnet":"?xt=urn:btih:43ab861b676a42038b6bc2f857b4b34cb81f8bb5&amp;dn=Primus-Hallucino-Genetics+Live+2004+DVDRip+XviD+AC3+5.1+titler&amp;tr=udp%3A%2F%2Ftracker.openbittorrent.com%3A80&amp;tr=udp%3A%2F%2Fopen.demonii.com%3A1337&amp;tr=udp%3A%2F%2Ftracker.coppersurfer.tk%3A6969&amp;tr=udp%3A%2F%2Fexodus.desync.com%3A6969","seeders":0,"leechers":1,"uploader":"movieZ.freak","files":4,"time":1372851530,"description":"SOURCE: DVD9\n\n &lt;a href=&quot;\nhttp://en.wikipedia.org/wiki/Hallucino-Genetics&quot; rel=&quot;nofollow&quot; target=&quot;_NEW&quot;&gt;\nhttp://en.wikipedia.org/wiki/Hallucino-Genetics&lt;/a&gt;\n\n\n- SAMPLE: John_Can't Kill Michael Malloy :)\n\n- SUBTITLE: Leslie, next to, and around microphone :)\n\n- LANGUAGE: Primus English :)\n\n\n\nRUNTIME: 2h 31m 53s\n\n\n\nNOTE: PRIMUS 'definitely' SUCKS !!! :)\n\n\nCAST:\n---------\n- Leslie Edward &quot;Les&quot; Claypool - Bass, vocals\n- Reid Laurence &quot;Larry Ler&quot; LaLonde - Guitar\n- Timothy W. &quot;Tim&quot; 'Herb' Alexander - Drums and percussion\n\n\nPLOT:\n---------\nMind-blowing 'badly shot' live show filmed on June 26, 2004 at the Aragon Ballroom in Chicago, Illinois\n\n\nINFO:\n---------\nIn his review for Allmusic, Greg Prato notes that &quot;despite a lengthy absence from the concert trail, Primus is as wild 'n' wacky as ever, and not afraid to veer off into an extended jam on a moment's notice.&quot; He contends that &quot;the Frizzle Fry portion certainly doesn't disappoint&quot;, elaborating that &quot;while sonically the set is top-notch, 'THE CAMERA WORK COULD HAVE BEEN BETTER.' A few front shots of drummer Alexander are included, so there is no clear view of what he's playing most of the time&quot;, but concludes that &quot;these complaints are small; Hallucino-Genetics Live 2004 is a faithful representation of the group's reunion tour.\n\n\nSet one:\n-------------\n01 - Sgt. Baker  (4:58)\n02 - American Life  (9:53)\n03 - My Friend Fats (11:07)\n04 - Jerry Was a Race Car Driver (3:28)\n05 - The Last Superpower aka Rapscallion (12:20)\n06 - My Name Is Mud  (5:45)\n07 - Southbound Pachyderm  (10:19)\n\n\nSet two - Frizzle Fry:\n---------------------------\n08 - To Defy the Laws of Tradition (6:54)\n09 - Groundhog's Day (8:07)\n10 - Too Many Puppies (7:21)\n11 - Mr. Knowitall (5:39)\n12 - Frizzle Fry  (6:09)\n13 - John the Fisherman  (3:59)\n14 - You Can't Kill Michael Malloy  (2:50)\n15 - The Toys Go Winding Down  (8:30)\n16 - Pudding Time  (4:52)\n17 - Sathington Willoughby (2:16)\n18 - Drum and Whamola Jam\t(10:17)\n19 - Spegetti Western  (6:22)\n20 - Harold of the Rocks (9:16)\n21 - To Defy (2:31)\n\nEncore:\n----------\n22 - The Pressman  (8:31)\n\n\nGeneral\n--------------\nFormat : AVI\nFormat/Info : Audio Video Interleave\nFormat profile : OpenDML\nFile size : 2.11 GiB\nDuration : 2h 31mn\nOverall bit rate : 1993 Kbps\nWriting application : VirtualDubMod 1.5.4.1\nWriting library : VirtualDub build 35456\n\n\nVideo\n------------\nFormat : MPEG-4 Visual\nFormat profile : Advanced Simple@L5\nFormat settings, BVOP : 2\nFormat settings, QPel : No\nFormat settings, GMC : No warppoints\nFormat settings, Matrix : Default (H.263)\nCodec ID : XVID\nCodec ID/Hint : XviD\nDuration : 2h 31mn\nBit rate : 1533 Kbps\nWidth : 640 pixels\nHeight : 400 pixels\nDisplay aspect ratio : 1.600\nFrame rate : 25.000 fps\nColor space : YUV\nChroma subsampling : 4:2:0\nBit depth : 8 bits\nScan type : Progressive\nCompression mode : Lossy\nBits/(Pixel*Frame) : 0.240\nStream size : 1.63 GiB (77%)\nWriting library : XviD 64\n\n\nAudio\n-----------\nFormat : AC-3\nFormat/Info : Audio Coding 3\nMode extension : CM (complete main)\nFormat settings, Endianness : Big\nCodec ID : 2000\nDuration : 2h 31mn\nBit rate mode : Constant\nBit rate : 448 Kbps\nChannel(s) : 6 channels\nChannel positions : Front: L C R, Side: L R, LFE\nSampling rate : 48.0 KHz\nBit depth : 16 bits\nCompression mode : Lossy\nStream size : 487 MiB (22%)\nAlignment : Split accross interleaves\nInterleave, duration : 40 ms (1.00 video frame)\nInterleave, preload duration : 500 ms","torrent":{"xt":"urn:btih:43ab861b676a42038b6bc2f857b4b34cb81f8bb5","amp;dn":"Primus-Hallucino-Genetics+Live+2004+DVDRip+XviD+AC3+5.1+titler","amp;tr":["udp%3A%2F%2Ftracker.openbittorrent.com%3A80","udp%3A%2F%2Fopen.demonii.com%3A1337","udp%3A%2F%2Ftracker.coppersurfer.tk%3A6969","udp%3A%2F%2Fexodus.desync.com%3A6969"],"infoHash":"43ab861b676a42038b6bc2f857b4b34cb81f8bb5","infoHashBuffer":{"type":"Buffer","data":[67,171,134,27,103,106,66,3,139,107,194,248,87,180,179,76,184,31,139,181]},"announce":[],"urlList":[]}}